# This file uses centimeters as units for non-parametric coordinates.

mtllib ProjectileMesh2.mtl
g default
v 1.125495 -0.353553 -0.353553
v 1.125495 -0.500000 0.000000
v 1.125495 -0.353553 0.353553
v 1.125495 -0.000000 0.500000
v 1.125495 0.353553 0.353553
v 1.125495 0.500000 0.000000
v 1.125495 0.353553 -0.353553
v 1.125495 -0.000000 -0.500000
v 0.649805 -0.612372 -0.612372
v 0.649805 -0.866025 0.000000
v 0.649805 -0.612372 0.612372
v 0.649805 -0.000000 0.866025
v 0.649805 0.612372 0.612372
v 0.649805 0.866025 0.000000
v 0.649805 0.612372 -0.612372
v 0.649805 -0.000000 -0.866025
v 0.000000 -0.707107 -0.707107
v -0.000000 -1.000000 0.000000
v -0.000000 -0.707107 0.707107
v -0.000000 0.000000 1.000000
v -0.000000 0.707107 0.707107
v 0.000000 1.000000 0.000000
v 0.000000 0.707107 -0.707107
v 0.000000 -0.000000 -1.000000
v -0.649805 -0.612372 -0.612372
v -0.649805 -0.866025 -0.000000
v -0.649805 -0.612372 0.612372
v -0.649805 0.000000 0.866025
v -0.649805 0.612372 0.612372
v -0.649805 0.866025 -0.000000
v -0.649805 0.612372 -0.612372
v -0.649805 0.000000 -0.866025
v -1.125495 -0.353553 -0.353553
v -1.125495 -0.500000 -0.000000
v -1.125495 -0.353553 0.353553
v -1.125495 0.000000 0.500000
v -1.125495 0.353553 0.353553
v -1.125495 0.500000 -0.000000
v -1.125495 0.353553 -0.353553
v -1.125495 0.000000 -0.500000
v 1.299610 -0.000000 0.000000
v -1.299610 0.000000 -0.000000
vt 0.000000 0.166667
vt 0.125000 0.166667
vt 0.250000 0.166667
vt 0.375000 0.166667
vt 0.500000 0.166667
vt 0.625000 0.166667
vt 0.750000 0.166667
vt 0.875000 0.166667
vt 1.000000 0.166667
vt 0.000000 0.333333
vt 0.125000 0.333333
vt 0.250000 0.333333
vt 0.375000 0.333333
vt 0.500000 0.333333
vt 0.625000 0.333333
vt 0.750000 0.333333
vt 0.875000 0.333333
vt 1.000000 0.333333
vt 0.000000 0.500000
vt 0.125000 0.500000
vt 0.250000 0.500000
vt 0.375000 0.500000
vt 0.500000 0.500000
vt 0.625000 0.500000
vt 0.750000 0.500000
vt 0.875000 0.500000
vt 1.000000 0.500000
vt 0.000000 0.666667
vt 0.125000 0.666667
vt 0.250000 0.666667
vt 0.375000 0.666667
vt 0.500000 0.666667
vt 0.625000 0.666667
vt 0.750000 0.666667
vt 0.875000 0.666667
vt 1.000000 0.666667
vt 0.000000 0.833333
vt 0.125000 0.833333
vt 0.250000 0.833333
vt 0.375000 0.833333
vt 0.500000 0.833333
vt 0.625000 0.833333
vt 0.750000 0.833333
vt 0.875000 0.833333
vt 1.000000 0.833333
vt 0.062500 0.000000
vt 0.187500 0.000000
vt 0.312500 0.000000
vt 0.437500 0.000000
vt 0.562500 0.000000
vt 0.687500 0.000000
vt 0.812500 0.000000
vt 0.937500 0.000000
vt 0.062500 1.000000
vt 0.187500 1.000000
vt 0.312500 1.000000
vt 0.437500 1.000000
vt 0.562500 1.000000
vt 0.687500 1.000000
vt 0.812500 1.000000
vt 0.937500 1.000000
vn 0.685454 -0.514856 -0.514856
vn 0.685454 -0.728116 -0.000000
vn 0.352517 -0.935806 -0.000000
vn 0.352517 -0.661715 -0.661714
vn 0.685454 -0.514856 0.514856
vn 0.352517 -0.661714 0.661714
vn 0.685454 0.000000 0.728116
vn 0.352517 0.000000 0.935806
vn 0.685454 0.514856 0.514856
vn 0.352517 0.661714 0.661714
vn 0.685454 0.728116 0.000000
vn 0.352517 0.935806 0.000000
vn 0.685454 0.514856 -0.514856
vn 0.352517 0.661714 -0.661714
vn 0.685454 -0.000000 -0.728116
vn 0.352517 -0.000000 -0.935806
vn 0.000000 -1.000000 0.000000
vn 0.000000 -0.707107 -0.707107
vn -0.000000 -0.707107 0.707107
vn -0.000000 0.000000 1.000000
vn -0.000000 0.707107 0.707107
vn -0.000000 1.000000 0.000000
vn -0.000000 0.707107 -0.707107
vn 0.000000 -0.000000 -1.000000
vn -0.352517 -0.935806 0.000000
vn -0.352517 -0.661714 -0.661714
vn -0.352517 -0.661714 0.661714
vn -0.352517 0.000000 0.935806
vn -0.352517 0.661714 0.661714
vn -0.352517 0.935806 0.000000
vn -0.352517 0.661714 -0.661714
vn -0.352517 -0.000000 -0.935806
vn -0.685454 -0.728116 0.000000
vn -0.685454 -0.514856 -0.514856
vn -0.685454 -0.514856 0.514856
vn -0.685454 0.000000 0.728116
vn -0.685454 0.514856 0.514856
vn -0.685454 0.728116 0.000000
vn -0.685454 0.514856 -0.514856
vn -0.685454 -0.000000 -0.728116
vn 1.000000 0.000000 -0.000000
vn -1.000000 0.000000 -0.000000
s 1
g pSphere1
usemtl initialShadingGroup
f 1/1/1 2/2/2 10/11/3 9/10/4
f 2/2/2 3/3/5 11/12/6 10/11/3
f 3/3/5 4/4/7 12/13/8 11/12/6
f 4/4/7 5/5/9 13/14/10 12/13/8
f 5/5/9 6/6/11 14/15/12 13/14/10
f 6/6/11 7/7/13 15/16/14 14/15/12
f 7/7/13 8/8/15 16/17/16 15/16/14
f 8/8/15 1/9/1 9/18/4 16/17/16
f 9/10/4 10/11/3 18/20/17 17/19/18
f 10/11/3 11/12/6 19/21/19 18/20/17
f 11/12/6 12/13/8 20/22/20 19/21/19
f 12/13/8 13/14/10 21/23/21 20/22/20
f 13/14/10 14/15/12 22/24/22 21/23/21
f 14/15/12 15/16/14 23/25/23 22/24/22
f 15/16/14 16/17/16 24/26/24 23/25/23
f 16/17/16 9/18/4 17/27/18 24/26/24
f 17/19/18 18/20/17 26/29/25 25/28/26
f 18/20/17 19/21/19 27/30/27 26/29/25
f 19/21/19 20/22/20 28/31/28 27/30/27
f 20/22/20 21/23/21 29/32/29 28/31/28
f 21/23/21 22/24/22 30/33/30 29/32/29
f 22/24/22 23/25/23 31/34/31 30/33/30
f 23/25/23 24/26/24 32/35/32 31/34/31
f 24/26/24 17/27/18 25/36/26 32/35/32
f 25/28/26 26/29/25 34/38/33 33/37/34
f 26/29/25 27/30/27 35/39/35 34/38/33
f 27/30/27 28/31/28 36/40/36 35/39/35
f 28/31/28 29/32/29 37/41/37 36/40/36
f 29/32/29 30/33/30 38/42/38 37/41/37
f 30/33/30 31/34/31 39/43/39 38/42/38
f 31/34/31 32/35/32 40/44/40 39/43/39
f 32/35/32 25/36/26 33/45/34 40/44/40
f 2/2/2 1/1/1 41/46/41
f 3/3/5 2/2/2 41/47/41
f 4/4/7 3/3/5 41/48/41
f 5/5/9 4/4/7 41/49/41
f 6/6/11 5/5/9 41/50/41
f 7/7/13 6/6/11 41/51/41
f 8/8/15 7/7/13 41/52/41
f 1/9/1 8/8/15 41/53/41
f 33/37/34 34/38/33 42/54/42
f 34/38/33 35/39/35 42/55/42
f 35/39/35 36/40/36 42/56/42
f 36/40/36 37/41/37 42/57/42
f 37/41/37 38/42/38 42/58/42
f 38/42/38 39/43/39 42/59/42
f 39/43/39 40/44/40 42/60/42
f 40/44/40 33/45/34 42/61/42
